<svg xmlns="http://www.w3.org/2000/svg" viewBox="0 0 256 256">
<defs>
  <radialGradient id="bg" cx="35%" cy="25%"><stop offset="0" stop-color="#8f6ca0"/><stop offset="1" stop-color="#241d29"/></radialGradient>
  <linearGradient id="fur" x1="0" y1="0" x2="1" y2="1"><stop stop-color="#302536"/><stop offset="1" stop-color="#100d14"/></linearGradient>
  <linearGradient id="hood" x1="0" y1="0" x2="1" y2="1"><stop stop-color="#3e2e49"/><stop offset="1" stop-color="#18131e"/></linearGradient>
  <radialGradient id="eye"><stop stop-color="#fff"/><stop offset=".18" stop-color="#d9b5ff"/><stop offset="1" stop-color="#7651a5"/></radialGradient>
  <filter id="shadow"><feDropShadow dx="0" dy="10" stdDeviation="9" flood-opacity=".45"/></filter>
</defs>
<circle cx="128" cy="128" r="124" fill="url(#bg)"/>
<g filter="url(#shadow)">
  <path d="M58 101 68 38l43 39c11-4 23-4 34 0l43-39 10 63c11 15 14 35 9 54-8 31-39 52-79 52s-71-21-79-52c-5-19-2-39 9-54Z" fill="url(#hood)" stroke="#b99bd5" stroke-width="3"/>
  <path d="M79 105c0-34 22-58 49-58s49 24 49 58v41c0 29-22 51-49 51s-49-22-49-51Z" fill="url(#fur)"/>
  <path d="M78 97 65 53l36 31M178 97l13-44-36 31" fill="#17121c" stroke="#6e527d" stroke-width="2"/>
  <ellipse cx="106" cy="119" rx="15" ry="19" fill="url(#eye)"/><ellipse cx="150" cy="119" rx="15" ry="19" fill="url(#eye)"/>
  <circle cx="110" cy="113" r="4" fill="#fff"/><circle cx="154" cy="113" r="4" fill="#fff"/>
  <path d="M123 141q5 5 10 0" fill="none" stroke="#b99bd5" stroke-width="3" stroke-linecap="round"/>
  <path d="M128 137l-5 5h10Z" fill="#7e5b88"/>
  <path d="M95 92 107 82M161 92 149 82" stroke="#a77ac0" stroke-width="3" stroke-linecap="round"/>
  <circle cx="128" cy="67" r="13" fill="#d9a9ef" opacity=".9"/>
  <path d="m128 57 3 7 8 1-6 5 2 8-7-4-7 4 2-8-6-5 8-1Z" fill="#fff"/>
  <path d="M55 175c21 17 42 25 73 25s52-8 73-25v35c-20 19-45 29-73 29s-53-10-73-29Z" fill="#201725"/>
  <path d="M84 195h88" stroke="#8e6ca1" stroke-width="4" stroke-linecap="round"/>
</g>
<path d="M27 88 39 84M217 84l12 4M38 174l-10 6M218 174l10 6" stroke="#d9a9ef" stroke-width="3" stroke-linecap="round" opacity=".7"/>
<rect x="18" y="207" width="220" height="38" rx="19" fill="#241d29" fill-opacity=".92" stroke="#b99bd5" stroke-width="2"/><text x="128" y="233" text-anchor="middle" font-family="Arial,sans-serif" font-size="20" font-weight="800" fill="#fff">ЛЮБЛЮ</text><text x="213" y="48" text-anchor="middle" font-size="30">❤️</text><path d="M106 115c-8-10-22 2 0 20 22-18 8-30 0-20ZM150 115c-8-10-22 2 0 20 22-18 8-30 0-20Z" fill="#ff6fae" stroke="#fff" stroke-width="2"/><path d="M119 143q9 9 18 0" stroke="#b99bd5" stroke-width="3" fill="none"/><rect x="18" y="207" width="220" height="38" rx="19" fill="#241d29" fill-opacity=".94" stroke="#b99bd5" stroke-width="2"/><text x="128" y="233" text-anchor="middle" font-family="Arial,sans-serif" font-size="20" font-weight="800" fill="#fff">ЛЮБЛЮ</text><text x="213" y="48" text-anchor="middle" font-size="30">❤️</text></svg>