<svg xmlns="http://www.w3.org/2000/svg" viewBox="0 0 160 160"><rect width="160" height="160" rx="38" fill="#e3e9f0"/><path d="M43 68 35 37l27 18c7-4 14-6 23-6s16 2 23 6l27-18-8 31c7 9 10 20 10 32 0 25-22 43-52 43s-52-18-52-43c0-12 3-23 10-32Z" fill="#f7fbff" stroke="#66798c" stroke-width="5"/><circle cx="67" cy="92" r="5" fill="#455363"/><circle cx="93" cy="92" r="5" fill="#455363"/><path d="M75 106q5 5 10 0" fill="none" stroke="#66798c" stroke-width="3" stroke-linecap="round"/><path d="M53 118h54l-5 25H58Z" fill="#252b33"/><path d="M58 118h44l-6 8H64Z" fill="#e2b45c"/><path d="M59 118l42 25M101 118l-42 25" stroke="#e2b45c" stroke-width="3"/></svg>